<?xml version="1.0" standalone="no"?>
<!DOCTYPE svg PUBLIC "-//W3C//DTD SVG 20010904//EN"
 "http://www.w3.org/TR/2001/REC-SVG-20010904/DTD/svg10.dtd">
<svg version="1.0" xmlns="http://www.w3.org/2000/svg"
 width="300.000000pt" height="150.000000pt" viewBox="0 0 300.000000 150.000000"
 preserveAspectRatio="xMidYMid meet">
<metadata>
Created by potrace 1.16, written by Peter Selinger 2001-2019
</metadata>
<g transform="translate(0.000000,150.000000) scale(0.100000,-0.100000)"
fill="#000000" stroke="none">
<path d="M137 1048 c-92 -39 -121 -57 -128 -75 -13 -36 185 -511 222 -532 23
-13 34 -10 139 34 129 54 150 68 150 102 0 32 -197 495 -218 511 -24 19 -38
15 -165 -40z m163 -35 c39 -84 170 -398 170 -408 0 -11 -205 -105 -228 -105
-9 0 -192 416 -192 436 0 12 193 102 221 103 9 1 22 -11 29 -26z"/>
<path d="M1940 660 c0 -139 3 -170 14 -170 11 0 15 21 18 91 3 85 5 92 31 115
33 28 67 31 96 7 18 -16 21 -31 23 -113 2 -77 6 -95 18 -95 12 0 16 16 18 70
6 134 -16 175 -92 175 -29 0 -52 -7 -70 -21 l-26 -20 0 65 c0 52 -3 66 -15 66
-13 0 -15 -26 -15 -170z"/>
<path d="M749 712 c-40 -36 -51 -109 -25 -164 20 -42 51 -58 112 -58 37 0 51
6 75 29 16 16 29 34 29 40 0 20 -22 11 -50 -19 -38 -40 -81 -41 -121 -1 -16
16 -29 39 -29 50 0 20 5 21 101 21 l102 0 -6 38 c-14 87 -122 123 -188 64z"/>
<path d="M1250 712 c-32 -32 -46 -84 -36 -136 16 -84 136 -118 197 -57 29 29
37 51 20 51 -5 0 -23 -13 -39 -30 -21 -20 -40 -30 -61 -30 -36 0 -78 35 -87
73 l-6 27 101 0 c101 0 101 0 101 25 0 64 -47 105 -120 105 -32 0 -48 -6 -70
-28z"/>
<path d="M1650 570 c0 -144 2 -170 15 -170 12 0 15 14 15 66 l0 65 26 -20 c41
-32 105 -29 146 8 31 28 33 33 33 96 0 63 -2 68 -33 96 -41 37 -105 40 -146 8
l-26 -20 0 20 c0 12 -6 21 -15 21 -13 0 -15 -26 -15 -170z m181 121 c24 -24
29 -38 29 -76 0 -89 -84 -135 -147 -81 -25 21 -28 31 -28 81 0 50 3 60 28 81
39 33 81 31 118 -5z"/>
<path d="M2251 714 c-38 -32 -54 -85 -41 -135 24 -88 135 -120 202 -60 31 28
33 33 33 96 0 63 -2 68 -33 96 -44 40 -116 41 -161 3z m135 -17 c20 -18 28
-35 32 -75 4 -47 2 -54 -26 -82 -41 -40 -83 -41 -123 -1 -24 24 -29 38 -29 76
0 88 84 135 146 82z"/>
<path d="M2500 615 c0 -104 2 -125 15 -125 12 0 15 16 15 86 0 81 1 87 29 115
34 33 69 37 100 12 18 -16 21 -31 23 -112 2 -65 7 -96 16 -99 9 -3 12 22 12
102 0 93 -3 109 -20 126 -28 28 -98 27 -134 -1 l-26 -20 0 20 c0 12 -6 21 -15
21 -13 0 -15 -21 -15 -125z"/>
<path d="M2822 727 c-70 -39 -79 -166 -15 -216 40 -32 122 -29 157 5 26 26 35
54 17 54 -5 0 -23 -13 -39 -30 -39 -38 -83 -40 -117 -5 -14 13 -25 36 -25 50
l0 25 100 0 c55 0 100 3 100 8 0 30 -25 85 -47 102 -29 23 -95 27 -131 7z"/>
</g>
</svg>
